HIERARCHY
ROOT hip
{
  OFFSET 73.3026 68.5442 50.3996
  CHANNELS 6 Xposition Yposition Zposition Zrotation Xrotation Yrotation
  JOINT abdomen
  {
    OFFSET 0 20.6881 -0.73152
    CHANNELS 3 Zrotation Xrotation Yrotation
    JOINT chest
    {
      OFFSET 0 11.7043 -0.48768
      CHANNELS 3 Zrotation Xrotation Yrotation
      JOINT neck
      {
        OFFSET 0 22.1894 -2.19456
        CHANNELS 3 Zrotation Xrotation Yrotation
        JOINT head
        {
          OFFSET -0.24384 7.07133 1.2192
          CHANNELS 3 Zrotation Xrotation Yrotation
          JOINT leftEye
          {
            OFFSET 4.14528 8.04674 8.04672
            CHANNELS 3 Zrotation Xrotation Yrotation
            End Site
            {
              OFFSET 1 0 0
            }
          }
          JOINT rightEye
          {
            OFFSET -3.6576 8.04674 8.04672
            CHANNELS 3 Zrotation Xrotation Yrotation
            End Site
            {
              OFFSET 1 0 0
            }
          }
        }
      }
      JOINT rCollar
      {
        OFFSET -2.68224 19.2634 -4.8768
        CHANNELS 3 Zrotation Xrotation Yrotation
        JOINT rShldr
        {
          OFFSET -8.77824 -1.95073 1.46304
          CHANNELS 3 Zrotation Xrotation Yrotation
          JOINT rForeArm
          {
            OFFSET -28.1742 -1.7115 0.48768
            CHANNELS 3 Zrotation Xrotation Yrotation
            JOINT rHand
            {
              OFFSET -22.5879 0.773209 7.07136
              CHANNELS 3 Zrotation Xrotation Yrotation
              JOINT rThumb1
              {
                OFFSET -1.2192 -0.487915 3.41376
                CHANNELS 3 Zrotation Xrotation Yrotation
                JOINT rThumb2
                {
                  OFFSET -3.37035 -0.52449 3.41376
                  CHANNELS 3 Zrotation Xrotation Yrotation
                  End Site
                  {
                    OFFSET -1.78271 -1.18214 1.43049
                  }
                }
              }
              JOINT rIndex1
              {
                OFFSET -7.75947 0.938293 5.60832
                CHANNELS 3 Zrotation Xrotation Yrotation
                JOINT rIndex2
                {
                  OFFSET -2.54057 -0.884171 1.56538
                  CHANNELS 3 Zrotation Xrotation Yrotation
                  End Site
                  {
                    OFFSET -1.62519 -0.234802 1.16502
                  }
                }
              }
              JOINT rMid1
              {
                OFFSET -8.24714 1.18213 3.41376
                CHANNELS 3 Zrotation Xrotation Yrotation
                JOINT rMid2
                {
                  OFFSET -3.10165 -0.590103 1.0647
                  CHANNELS 3 Zrotation Xrotation Yrotation
                  End Site
                  {
                    OFFSET -2.48547 -0.328903 0.83742
                  }
                }
              }
              JOINT rRing1
              {
                OFFSET -8.82822 0.546677 1.51678
                CHANNELS 3 Zrotation Xrotation Yrotation
                JOINT rRing2
                {
                  OFFSET -2.60934 -0.819778 -0.0198488
                  CHANNELS 3 Zrotation Xrotation Yrotation
                  End Site
                  {
                    OFFSET -2.33842 -0.294052 0.168128
                  }
                }
              }
              JOINT rPinky1
              {
                OFFSET -8.27202 -0.0477905 -0.4584
                CHANNELS 3 Zrotation Xrotation Yrotation
                JOINT rPinky2
                {
                  OFFSET -1.82734 -0.647385 -0.700984
                  CHANNELS 3 Zrotation Xrotation Yrotation
                  End Site
                  {
                    OFFSET -1.69225 -0.51767 -0.607171
                  }
                }
              }
            }
          }
        }
      }
      JOINT lCollar
      {
        OFFSET 2.68224 19.2634 -4.8768
        CHANNELS 3 Zrotation Xrotation Yrotation
        JOINT lShldr
        {
          OFFSET 8.77824 -1.95073 1.46304
          CHANNELS 3 Zrotation Xrotation Yrotation
          JOINT lForeArm
          {
            OFFSET 28.1742 -1.7115 0.48768
            CHANNELS 3 Zrotation Xrotation Yrotation
            JOINT lHand
            {
              OFFSET 22.5879 0.773209 7.07136
              CHANNELS 3 Zrotation Xrotation Yrotation
              JOINT lThumb1
              {
                OFFSET 1.2192 -0.487915 3.41376
                CHANNELS 3 Zrotation Xrotation Yrotation
                JOINT lThumb2
                {
                  OFFSET 3.37035 -0.52449 3.41376
                  CHANNELS 3 Zrotation Xrotation Yrotation
                  End Site
                  {
                    OFFSET 1.78271 -1.18214 1.43049
                  }
                }
              }
              JOINT lIndex1
              {
                OFFSET 7.75947 0.938293 5.60832
                CHANNELS 3 Zrotation Xrotation Yrotation
                JOINT lIndex2
                {
                  OFFSET 2.54057 -0.884171 1.56538
                  CHANNELS 3 Zrotation Xrotation Yrotation
                  End Site
                  {
                    OFFSET 1.62519 -0.234802 1.16502
                  }
                }
              }
              JOINT lMid1
              {
                OFFSET 8.24714 1.18213 3.41376
                CHANNELS 3 Zrotation Xrotation Yrotation
                JOINT lMid2
                {
                  OFFSET 3.10165 -0.590103 1.0647
                  CHANNELS 3 Zrotation Xrotation Yrotation
                  End Site
                  {
                    OFFSET 2.48547 -0.328903 0.83742
                  }
                }
              }
              JOINT lRing1
              {
                OFFSET 8.82822 0.546677 1.51678
                CHANNELS 3 Zrotation Xrotation Yrotation
                JOINT lRing2
                {
                  OFFSET 2.60934 -0.819778 -0.0198488
                  CHANNELS 3 Zrotation Xrotation Yrotation
                  End Site
                  {
                    OFFSET 2.33842 -0.294052 0.168128
                  }
                }
              }
              JOINT lPinky1
              {
                OFFSET 8.27202 -0.0477905 -0.4584
                CHANNELS 3 Zrotation Xrotation Yrotation
                JOINT lPinky2
                {
                  OFFSET 1.82734 -0.647385 -0.700984
                  CHANNELS 3 Zrotation Xrotation Yrotation
                  End Site
                  {
                    OFFSET 1.69225 -0.51767 -0.607171
                  }
                }
              }
            }
          }
        }
      }
    }
  }
  JOINT rButtock
  {
    OFFSET -8.77824 4.35084 1.2192
    CHANNELS 3 Zrotation Xrotation Yrotation
    JOINT rThigh
    {
      OFFSET 0 -1.70687 -2.19456
      CHANNELS 3 Zrotation Xrotation Yrotation
      JOINT rShin
      {
        OFFSET 0 -36.8199 0.73152
        CHANNELS 3 Zrotation Xrotation Yrotation
        JOINT rFoot
        {
          OFFSET 0.73152 -45.1104 -5.12064
          CHANNELS 3 Zrotation Xrotation Yrotation
          End Site
          {
            OFFSET -1.1221 -3.69964 12.103
          }
        }
      }
    }
  }
  JOINT lButtock
  {
    OFFSET 8.77824 4.35084 1.2192
    CHANNELS 3 Zrotation Xrotation Yrotation
    JOINT lThigh
    {
      OFFSET 0 -1.70687 -2.19456
      CHANNELS 3 Zrotation Xrotation Yrotation
      JOINT lShin
      {
        OFFSET 0 -36.8199 0.73152
        CHANNELS 3 Zrotation Xrotation Yrotation
        JOINT lFoot
        {
          OFFSET -0.73152 -45.1104 -5.12064
          CHANNELS 3 Zrotation Xrotation Yrotation
          End Site
          {
            OFFSET 1.1221 -3.69964 12.103
          }
        }
      }
    }
  }
}
MOTION
Frames:	5
Frame Time:	0.00833333
85.2046 64.4905 84.6825 6.4089 -18.9973 -170.892 -0.32533 -27.1725 0.0431961 1.58706 17.285 -0.37253 0.0947639 16.5197 -0.0483863 -1.13637 -4.76609 3.11269 -0 0 0 -0 0 0 1.19076e-013 2.15723e-013 -1.14829e-013 75.3793 18.3149 -8.82372 -24.231 -19.5349 50.3496 -0.165551 -11.5195 -1.64136 -1.23585e-009 2.81769e-009 1.65352e-009 -2.15205e-009 4.89018e-009 2.84474e-009 -1.23584e-009 2.81769e-009 1.65349e-009 7.73091 5.47488 0.417314 -1.23585e-009 2.81769e-009 1.65351e-009 2.90554 0.965183 0.102902 -1.23585e-009 2.81769e-009 1.65351e-009 10.2786 0.731801 0.0259123 -1.23585e-009 2.8177e-009 1.65351e-009 2.22167 -0.733487 -0.20892 1.1903e-013 2.15714e-013 -1.15065e-013 -76.7909 15.1296 13.0798 13.1358 -6.2811 -23.8251 0.00261828 -1.46494 0.205919 -1.23955e-009 7.422e-010 1.74662e-009 -2.14066e-009 1.28106e-009 3.02222e-009 -1.23956e-009 7.422e-010 1.74664e-009 -7.73091 5.47488 -0.417314 -1.23955e-009 7.42198e-010 1.74662e-009 -2.90554 0.965183 -0.102902 -1.23956e-009 7.42199e-010 1.74662e-009 -10.2786 0.731801 -0.0259123 -1.23955e-009 7.42203e-010 1.74662e-009 -2.22167 -0.733487 0.20892 -2.03217e-016 0 -3.88251e-019 -11.3056 -8.53344 8.08943 -0.44726 45.7687 1.06666 6.96338 -37.9391 10.2003 2.03217e-016 0 3.88251e-019 11.8621 -49.8081 -1.23163 0.10511 22.2461 -0.101637 -4.54322 14.8175 6.20422 
85.0048 63.9102 84.2151 6.03965 -19.3605 -170.972 -0.26285 -26.8079 -0.0218732 1.8677 16.925 -0.442333 0.0970744 16.5615 -0.152671 -0.999523 -4.94351 2.87731 -0 0 0 -0 0 0 8.88387e-014 2.25128e-013 -1.70557e-013 75.3831 18.3664 -8.89614 -24.3221 -19.7114 50.644 -0.161588 -11.3835 -1.62144 -5.79093e-010 1.69458e-009 1.50554e-009 -1.01525e-009 2.94643e-009 2.59354e-009 -5.79077e-010 1.69457e-009 1.50552e-009 7.73091 5.47488 0.417314 -5.79095e-010 1.69458e-009 1.50554e-009 2.90554 0.965183 0.102902 -5.79093e-010 1.69458e-009 1.50554e-009 10.2786 0.731801 0.0259123 -5.79098e-010 1.69458e-009 1.50554e-009 2.22167 -0.733487 -0.20892 8.88061e-014 2.25119e-013 -1.7079e-013 -76.7088 15.0393 12.7133 12.777 -6.01409 -23.1146 0.00149843 -0.987488 0.138774 -6.28977e-010 1.28016e-009 1.23509e-009 -1.08419e-009 2.21337e-009 2.13581e-009 -6.28986e-010 1.28016e-009 1.23511e-009 -7.73091 5.47488 -0.417314 -6.28976e-010 1.28016e-009 1.23509e-009 -2.90554 0.965183 -0.102902 -6.28985e-010 1.28016e-009 1.2351e-009 -10.2786 0.731801 -0.0259123 -6.28972e-010 1.28016e-009 1.23509e-009 -2.22167 -0.733487 0.20892 -2.03217e-016 0 -3.88251e-019 -11.2301 -8.39452 8.10567 -0.441839 46.3212 1.18103 7.31179 -37.7685 11.0462 2.03217e-016 0 3.88251e-019 12.1766 -50.7155 -0.488721 0.125352 23.1665 -0.0942981 -4.28871 13.3366 5.68287 
84.8088 63.4235 83.8263 5.69758 -19.7245 -171.135 -0.295522 -26.4065 -0.135608 2.15138 16.5993 -0.523448 0.104715 16.5711 -0.273789 -0.846976 -5.13859 2.60028 -0 0 0 -0 0 0 4.49061e-014 2.01882e-013 -2.07326e-013 75.3934 18.359 -8.92997 -24.3969 -19.8581 50.8888 -0.157936 -11.2553 -1.6027 1.92945e-010 3.21011e-010 1.15322e-009 3.22743e-010 5.6772e-010 1.99062e-009 1.92967e-010 3.21e-010 1.1532e-009 7.73091 5.47488 0.417314 1.92943e-010 3.21009e-010 1.15322e-009 2.90554 0.965183 0.102902 1.92945e-010 3.21009e-010 1.15322e-009 10.2786 0.731801 0.0259123 1.92939e-010 3.21012e-010 1.15322e-009 2.22167 -0.733487 -0.20892 4.48823e-014 2.01874e-013 -2.07564e-013 -76.6009 14.9407 12.2556 12.4286 -5.75772 -22.4355 0.000695769 -0.454661 0.0638768 1.03433e-010 1.63903e-009 5.42753e-010 1.82216e-010 2.83592e-009 9.36688e-010 1.03422e-010 1.63903e-009 5.4277e-010 -7.73091 5.47488 -0.417314 1.03434e-010 1.63902e-009 5.42755e-010 -2.90554 0.965183 -0.102902 1.03424e-010 1.63903e-009 5.42763e-010 -10.2786 0.731801 -0.0259123 1.03436e-010 1.63903e-009 5.4276e-010 -2.22167 -0.733487 0.20892 -2.03217e-016 0 -3.88251e-019 -11.1613 -8.22202 8.12751 -0.437619 46.8091 1.28236 7.60141 -37.5371 11.8354 2.03217e-016 0 3.88251e-019 12.3232 -51.7292 0.0376297 0.145329 24.1967 -0.0804443 -4.11991 12.0027 5.38246 
84.6196 63.0253 83.5185 5.3905 -20.1067 -171.373 -0.400201 -26.0422 -0.257202 2.40218 16.3836 -0.601842 0.122659 16.5259 -0.409413 -0.647941 -5.29452 2.29761 -0 0 0 -0 0 0 1.29326e-014 1.4949e-013 -2.08177e-013 75.4527 18.2991 -8.88801 -24.4455 -19.9537 51.0513 -0.15683 -11.2164 -1.59702 7.10929e-010 -7.11896e-010 6.87207e-010 1.22271e-009 -1.22319e-009 1.18994e-009 7.10953e-010 -7.1191e-010 6.87191e-010 7.73091 5.47488 0.417314 7.10927e-010 -7.119e-010 6.87207e-010 2.90554 0.965183 0.102902 7.1093e-010 -7.119e-010 6.87206e-010 10.2786 0.731801 0.0259123 7.10922e-010 -7.11896e-010 6.87213e-010 2.22167 -0.733487 -0.20892 1.29103e-014 1.49483e-013 -2.08426e-013 -76.4455 14.8406 11.7526 12.1537 -5.55698 -21.9077 2.74955e-005 0.149729 -0.021043 6.13989e-010 1.64741e-009 -1.04182e-010 1.06399e-009 2.8515e-009 -1.83291e-010 6.13979e-010 1.6474e-009 -1.04166e-010 -7.73091 5.47488 -0.417314 6.13991e-010 1.6474e-009 -1.04179e-010 -2.90554 0.965183 -0.102902 6.1398e-010 1.6474e-009 -1.0417e-010 -10.2786 0.731801 -0.0259123 6.13992e-010 1.64741e-009 -1.04173e-010 -2.22167 -0.733487 0.20892 -2.03217e-016 0 -3.88251e-019 -11.1365 -8.02083 8.09472 -0.433717 47.1622 1.3707 7.82941 -37.2227 12.5498 2.03217e-016 0 3.88251e-019 12.3289 -52.7452 0.380158 0.163842 25.247 -0.072713 -3.98045 10.825 5.01765 
84.4457 62.7029 83.1897 5.1168 -20.5172 -171.738 -0.612586 -25.7405 -0.422324 2.62982 16.3334 -0.688731 0.151591 16.4028 -0.56168 -0.387849 -5.4137 1.96072 -0 0 0 -0 0 0 -3.23108e-015 2.63038e-014 -1.46113e-013 75.5735 18.1711 -8.72978 -24.4652 -19.9924 51.1199 -0.158915 -11.2892 -1.60766 9.09399e-010 -1.413e-009 -1.53907e-010 1.57424e-009 -2.44435e-009 -2.59913e-010 9.0942e-010 -1.41302e-009 -1.53922e-010 7.73091 5.47488 0.417314 9.09397e-010 -1.41301e-009 -1.53906e-010 2.90554 0.965183 0.102902 9.09402e-010 -1.41301e-009 -1.53907e-010 10.2786 0.731801 0.0259123 9.09392e-010 -1.413e-009 -1.539e-010 2.22167 -0.733487 -0.20892 -3.26688e-015 2.62995e-014 -1.46384e-013 -76.2156 14.6641 11.1701 11.9621 -5.41943 -21.5412 -0.000247884 0.923486 -0.129749 8.35793e-010 9.94507e-010 -9.05145e-010 1.44393e-009 1.72219e-009 -1.56879e-009 8.35784e-010 9.94504e-010 -9.05131e-010 -7.73091 5.47488 -0.417314 8.35795e-010 9.94502e-010 -9.05142e-010 -2.90554 0.965183 -0.102902 8.35785e-010 9.94505e-010 -9.05134e-010 -10.2786 0.731801 -0.0259123 8.35795e-010 9.94507e-010 -9.05135e-010 -2.22167 -0.733487 0.20892 -2.03217e-016 0 -3.88251e-019 -11.1743 -7.77394 7.95289 -0.427601 47.3378 1.44248 7.98567 -36.8183 13.179 2.03217e-016 0 3.88251e-019 12.0978 -53.802 0.436278 0.181111 26.3681 -0.07611 -3.8701 9.82217 4.53478 
